{
  "accessors": [
    {
      "bufferView": 2,
      "componentType": 5126,
      "count": 3525,
      "max": [
        0.20463334023952484,
        0.349959135055542,
        0.23877622187137604
      ],
      "min": [
        -0.29438814520835876,
        -0.3504219651222229,
        -0.23398110270500183
      ],
      "type": "VEC3"
    },
    {
      "bufferView": 2,
      "byteOffset": 42300,
      "componentType": 5126,
      "count": 3525,
      "max": [
        1.0,
        1.0,
        1.0
      ],
      "min": [
        -1.0,
        -1.0,
        -1.0
      ],
      "type": "VEC3"
    },
    {
      "bufferView": 1,
      "componentType": 5126,
      "count": 3525,
      "max": [
        1.0,
        1.0
      ],
      "min": [
        0.0,
        0.0
      ],
      "type": "VEC2"
    },
    {
      "bufferView": 1,
      "byteOffset": 28200,
      "componentType": 5126,
      "count": 3525,
      "max": [
        0.0,
        0.0
      ],
      "min": [
        0.0,
        0.0
      ],
      "type": "VEC2"
    },
    {
      "bufferView": 1,
      "byteOffset": 56400,
      "componentType": 5126,
      "count": 3525,
      "max": [
        0.0,
        0.0
      ],
      "min": [
        0.0,
        0.0
      ],
      "type": "VEC2"
    },
    {
      "bufferView": 1,
      "byteOffset": 84600,
      "componentType": 5126,
      "count": 3525,
      "max": [
        0.0,
        0.0
      ],
      "min": [
        0.0,
        0.0
      ],
      "type": "VEC2"
    },
    {
      "bufferView": 1,
      "byteOffset": 112800,
      "componentType": 5126,
      "count": 3525,
      "max": [
        0.0,
        0.0
      ],
      "min": [
        0.0,
        0.0
      ],
      "type": "VEC2"
    },
    {
      "bufferView": 1,
      "byteOffset": 141000,
      "componentType": 5126,
      "count": 3525,
      "max": [
        0.0,
        0.0
      ],
      "min": [
        0.0,
        0.0
      ],
      "type": "VEC2"
    },
    {
      "bufferView": 1,
      "byteOffset": 169200,
      "componentType": 5126,
      "count": 3525,
      "max": [
        0.0,
        0.0
      ],
      "min": [
        0.0,
        0.0
      ],
      "type": "VEC2"
    },
    {
      "bufferView": 1,
      "byteOffset": 197400,
      "componentType": 5126,
      "count": 3525,
      "max": [
        0.996258020401001,
        0.9057819843292236
      ],
      "min": [
        0.0,
        0.0
      ],
      "type": "VEC2"
    },
    {
      "bufferView": 0,
      "componentType": 5125,
      "count": 7896,
      "type": "SCALAR"
    },
    {
      "bufferView": 2,
      "byteOffset": 84600,
      "componentType": 5126,
      "count": 213,
      "max": [
        0.21776548027992249,
        0.19675076007843018,
        0.4270036816596985
      ],
      "min": [
        0.20463334023952484,
        -0.19721359014511108,
        0.3525881767272949
      ],
      "type": "VEC3"
    },
    {
      "bufferView": 2,
      "byteOffset": 87156,
      "componentType": 5126,
      "count": 213,
      "max": [
        1.0,
        1.0,
        1.0
      ],
      "min": [
        -1.0,
        -1.0,
        -1.0
      ],
      "type": "VEC3"
    },
    {
      "bufferView": 1,
      "byteOffset": 225600,
      "componentType": 5126,
      "count": 213,
      "max": [
        0.9220620393753052,
        0.7063996195793152
      ],
      "min": [
        0.08208954334259033,
        0.5477380156517029
      ],
      "type": "VEC2"
    },
    {
      "bufferView": 1,
      "byteOffset": 227304,
      "componentType": 5126,
      "count": 213,
      "max": [
        1.0258557796478271,
        1.3948642015457153
      ],
      "min": [
        -0.02618507854640484,
        -0.362181156873703
      ],
      "type": "VEC2"
    },
    {
      "bufferView": 1,
      "byteOffset": 229008,
      "componentType": 5126,
      "count": 213,
      "max": [
        0.0,
        0.0
      ],
      "min": [
        0.0,
        0.0
      ],
      "type": "VEC2"
    },
    {
      "bufferView": 1,
      "byteOffset": 230712,
      "componentType": 5126,
      "count": 213,
      "max": [
        0.9220620393753052,
        0.7063996195793152
      ],
      "min": [
        0.08208954334259033,
        0.5477380156517029
      ],
      "type": "VEC2"
    },
    {
      "bufferView": 1,
      "byteOffset": 232416,
      "componentType": 5126,
      "count": 213,
      "max": [
        0.0,
        0.0
      ],
      "min": [
        0.0,
        0.0
      ],
      "type": "VEC2"
    },
    {
      "bufferView": 1,
      "byteOffset": 234120,
      "componentType": 5126,
      "count": 213,
      "max": [
        0.0,
        0.0
      ],
      "min": [
        0.0,
        0.0
      ],
      "type": "VEC2"
    },
    {
      "bufferView": 1,
      "byteOffset": 235824,
      "componentType": 5126,
      "count": 213,
      "max": [
        0.0,
        0.0
      ],
      "min": [
        0.0,
        0.0
      ],
      "type": "VEC2"
    },
    {
      "bufferView": 1,
      "byteOffset": 237528,
      "componentType": 5126,
      "count": 213,
      "max": [
        0.0,
        0.0
      ],
      "min": [
        0.0,
        0.0
      ],
      "type": "VEC2"
    },
    {
      "bufferView": 1,
      "byteOffset": 239232,
      "componentType": 5126,
      "count": 213,
      "max": [
        0.0,
        0.0
      ],
      "min": [
        0.0,
        0.0
      ],
      "type": "VEC2"
    },
    {
      "bufferView": 0,
      "byteOffset": 31584,
      "componentType": 5125,
      "count": 552,
      "type": "SCALAR"
    },
    {
      "bufferView": 2,
      "byteOffset": 89712,
      "componentType": 5126,
      "count": 16913,
      "max": [
        0.235275000333786,
        0.3499591648578644,
        0.2781727910041809
      ],
      "min": [
        -0.2637465000152588,
        -0.3504219949245453,
        -0.2763369679450989
      ],
      "type": "VEC3"
    },
    {
      "bufferView": 2,
      "byteOffset": 292668,
      "componentType": 5126,
      "count": 16913,
      "max": [
        1.0,
        1.0,
        1.0
      ],
      "min": [
        -1.0,
        -1.0,
        -1.0
      ],
      "type": "VEC3"
    },
    {
      "bufferView": 1,
      "byteOffset": 240936,
      "componentType": 5126,
      "count": 16913,
      "max": [
        0.0,
        0.0
      ],
      "min": [
        0.0,
        0.0
      ],
      "type": "VEC2"
    },
    {
      "bufferView": 1,
      "byteOffset": 376240,
      "componentType": 5126,
      "count": 16913,
      "max": [
        0.0,
        0.0
      ],
      "min": [
        0.0,
        0.0
      ],
      "type": "VEC2"
    },
    {
      "bufferView": 1,
      "byteOffset": 511544,
      "componentType": 5126,
      "count": 16913,
      "max": [
        1.0,
        1.0
      ],
      "min": [
        0.0,
        0.0
      ],
      "type": "VEC2"
    },
    {
      "bufferView": 1,
      "byteOffset": 646848,
      "componentType": 5126,
      "count": 16913,
      "max": [
        1.0,
        1.0
      ],
      "min": [
        0.0,
        0.0
      ],
      "type": "VEC2"
    },
    {
      "bufferView": 1,
      "byteOffset": 782152,
      "componentType": 5126,
      "count": 16913,
      "max": [
        0.0,
        0.0
      ],
      "min": [
        0.0,
        0.0
      ],
      "type": "VEC2"
    },
    {
      "bufferView": 1,
      "byteOffset": 917456,
      "componentType": 5126,
      "count": 16913,
      "max": [
        0.0,
        0.0
      ],
      "min": [
        0.0,
        0.0
      ],
      "type": "VEC2"
    },
    {
      "bufferView": 1,
      "byteOffset": 1052760,
      "componentType": 5126,
      "count": 16913,
      "max": [
        0.0,
        0.0
      ],
      "min": [
        0.0,
        0.0
      ],
      "type": "VEC2"
    },
    {
      "bufferView": 1,
      "byteOffset": 1188064,
      "componentType": 5126,
      "count": 16913,
      "max": [
        1.0,
        1.0
      ],
      "min": [
        0.0,
        0.0
      ],
      "type": "VEC2"
    },
    {
      "bufferView": 1,
      "byteOffset": 1323368,
      "componentType": 5126,
      "count": 16913,
      "max": [
        0.0,
        0.0
      ],
      "min": [
        0.0,
        0.0
      ],
      "type": "VEC2"
    },
    {
      "bufferView": 0,
      "byteOffset": 33792,
      "componentType": 5125,
      "count": 49734,
      "type": "SCALAR"
    },
    {
      "bufferView": 2,
      "byteOffset": 495624,
      "componentType": 5126,
      "count": 2324,
      "max": [
        0.21776548027992249,
        0.4156199097633362,
        0.4620227813720703
      ],
      "min": [
        0.20463334023952484,
        -0.4160827100276947,
        -0.30401909351348877
      ],
      "type": "VEC3"
    },
    {
      "bufferView": 2,
      "byteOffset": 523512,
      "componentType": 5126,
      "count": 2324,
      "max": [
        1.0,
        1.0,
        1.0
      ],
      "min": [
        -1.0,
        -1.0,
        -1.0
      ],
      "type": "VEC3"
    },
    {
      "bufferView": 1,
      "byteOffset": 1458672,
      "componentType": 5126,
      "count": 2324,
      "max": [
        0.0,
        0.0
      ],
      "min": [
        0.0,
        0.0
      ],
      "type": "VEC2"
    },
    {
      "bufferView": 1,
      "byteOffset": 1477264,
      "componentType": 5126,
      "count": 2324,
      "max": [
        0.0,
        0.0
      ],
      "min": [
        0.0,
        0.0
      ],
      "type": "VEC2"
    },
    {
      "bufferView": 1,
      "byteOffset": 1495856,
      "componentType": 5126,
      "count": 2324,
      "max": [
        0.0,
        0.0
      ],
      "min": [
        0.0,
        0.0
      ],
      "type": "VEC2"
    },
    {
      "bufferView": 1,
      "byteOffset": 1514448,
      "componentType": 5126,
      "count": 2324,
      "max": [
        0.0,
        0.0
      ],
      "min": [
        0.0,
        0.0
      ],
      "type": "VEC2"
    },
    {
      "bufferView": 1,
      "byteOffset": 1533040,
      "componentType": 5126,
      "count": 2324,
      "max": [
        0.9977980256080627,
        0.9330210089683533
      ],
      "min": [
        0.0,
        0.0
      ],
      "type": "VEC2"
    },
    {
      "bufferView": 1,
      "byteOffset": 1551632,
      "componentType": 5126,
      "count": 2324,
      "max": [
        0.9985349774360657,
        0.7066689729690552
      ],
      "min": [
        0.0,
        0.0
      ],
      "type": "VEC2"
    },
    {
      "bufferView": 1,
      "byteOffset": 1570224,
      "componentType": 5126,
      "count": 2324,
      "max": [
        0.0,
        0.0
      ],
      "min": [
        0.0,
        0.0
      ],
      "type": "VEC2"
    },
    {
      "bufferView": 1,
      "byteOffset": 1588816,
      "componentType": 5126,
      "count": 2324,
      "max": [
        0.0,
        0.0
      ],
      "min": [
        0.0,
        0.0
      ],
      "type": "VEC2"
    },
    {
      "bufferView": 0,
      "byteOffset": 232728,
      "componentType": 5125,
      "count": 7476,
      "type": "SCALAR"
    },
    {
      "bufferView": 2,
      "byteOffset": 551400,
      "componentType": 5126,
      "count": 719,
      "max": [
        0.21776551008224487,
        0.33244961500167847,
        0.22126679122447968
      ],
      "min": [
        0.20463337004184723,
        -0.3329124450683594,
        -0.21647140383720398
      ],
      "type": "VEC3"
    },
    {
      "bufferView": 2,
      "byteOffset": 560028,
      "componentType": 5126,
      "count": 719,
      "max": [
        1.0,
        1.0,
        1.0
      ],
      "min": [
        -1.0,
        -1.0,
        -1.0
      ],
      "type": "VEC3"
    },
    {
      "bufferView": 1,
      "byteOffset": 1607408,
      "componentType": 5126,
      "count": 719,
      "max": [
        0.0,
        0.0
      ],
      "min": [
        0.0,
        0.0
      ],
      "type": "VEC2"
    },
    {
      "bufferView": 1,
      "byteOffset": 1613160,
      "componentType": 5126,
      "count": 719,
      "max": [
        0.0,
        0.0
      ],
      "min": [
        0.0,
        0.0
      ],
      "type": "VEC2"
    },
    {
      "bufferView": 1,
      "byteOffset": 1618912,
      "componentType": 5126,
      "count": 719,
      "max": [
        0.0,
        0.0
      ],
      "min": [
        0.0,
        0.0
      ],
      "type": "VEC2"
    },
    {
      "bufferView": 1,
      "byteOffset": 1624664,
      "componentType": 5126,
      "count": 719,
      "max": [
        0.0,
        0.0
      ],
      "min": [
        0.0,
        0.0
      ],
      "type": "VEC2"
    },
    {
      "bufferView": 1,
      "byteOffset": 1630416,
      "componentType": 5126,
      "count": 719,
      "max": [
        0.0,
        0.0
      ],
      "min": [
        0.0,
        0.0
      ],
      "type": "VEC2"
    },
    {
      "bufferView": 1,
      "byteOffset": 1636168,
      "componentType": 5126,
      "count": 719,
      "max": [
        0.0,
        0.0
      ],
      "min": [
        0.0,
        0.0
      ],
      "type": "VEC2"
    },
    {
      "bufferView": 1,
      "byteOffset": 1641920,
      "componentType": 5126,
      "count": 719,
      "max": [
        0.0,
        0.0
      ],
      "min": [
        0.0,
        0.0
      ],
      "type": "VEC2"
    },
    {
      "bufferView": 1,
      "byteOffset": 1647672,
      "componentType": 5126,
      "count": 719,
      "max": [
        0.0,
        0.0
      ],
      "min": [
        0.0,
        0.0
      ],
      "type": "VEC2"
    },
    {
      "bufferView": 0,
      "byteOffset": 262632,
      "componentType": 5125,
      "count": 2352,
      "type": "SCALAR"
    }
  ],
  "asset": {
    "extras": {
      "author": "lutz_westerfeld (https://sketchfab.com/lutzwesterfeld)",
      "license": "CC-BY-4.0 (http://creativecommons.org/licenses/by/4.0/)",
      "source": "https://sketchfab.com/3d-models/oven-no1-be59c580bda64e63bd9e8520f431be55",
      "title": "Oven No.1"
    },
    "generator": "Sketchfab-13.12.0",
    "version": "2.0"
  },
  "bufferViews": [
    {
      "buffer": 0,
      "byteLength": 272040,
      "name": "floatBufferViews",
      "target": 34963
    },
    {
      "buffer": 0,
      "byteLength": 1653424,
      "byteOffset": 272040,
      "byteStride": 8,
      "name": "floatBufferViews",
      "target": 34962
    },
    {
      "buffer": 0,
      "byteLength": 568656,
      "byteOffset": 1925464,
      "byteStride": 12,
      "name": "floatBufferViews",
      "target": 34962
    }
  ],
  "buffers": [
    {
      "byteLength": 2494120,
      "uri": "scene.bin"
    }
  ],
  "images": [
    {
      "uri": "textures/Material.007_baseColor.jpeg"
    }
  ],
  "materials": [
    {
      "doubleSided": true,
      "name": "Material.020",
      "pbrMetallicRoughness": {
        "baseColorFactor": [
          0.141176,
          0.141176,
          0.141176,
          1.0
        ],
        "metallicFactor": 0.0,
        "roughnessFactor": 0.968432086720849
      }
    },
    {
      "doubleSided": true,
      "emissiveFactor": [
        1.0,
        1.0,
        1.0
      ],
      "emissiveTexture": {
        "index": 0
      },
      "name": "Material.007",
      "pbrMetallicRoughness": {
        "baseColorTexture": {
          "index": 0
        },
        "metallicFactor": 0.5,
        "roughnessFactor": 0.09999999999999998
      }
    },
    {
      "doubleSided": true,
      "name": "Material.002",
      "pbrMetallicRoughness": {
        "baseColorFactor": [
          0.670724,
          0.670724,
          0.670724,
          1.0
        ],
        "metallicFactor": 0.5,
        "roughnessFactor": 0.09999999999999998
      }
    },
    {
      "doubleSided": true,
      "name": "Material.001",
      "pbrMetallicRoughness": {
        "baseColorFactor": [
          0.0,
          0.0,
          0.0,
          1.0
        ],
        "metallicFactor": 0.5,
        "roughnessFactor": 0.0
      }
    },
    {
      "alphaMode": "BLEND",
      "doubleSided": true,
      "name": "Material.003",
      "pbrMetallicRoughness": {
        "baseColorFactor": [
          0.363613,
          0.363613,
          0.363613,
          0.1
        ],
        "metallicFactor": 0.5,
        "roughnessFactor": 0.0
      }
    }
  ],
  "meshes": [
    {
      "name": "OFEN_Mit_Basis_Material.020_0",
      "primitives": [
        {
          "attributes": {
            "NORMAL": 1,
            "POSITION": 0,
            "TEXCOORD_0": 2,
            "TEXCOORD_1": 3,
            "TEXCOORD_2": 4,
            "TEXCOORD_3": 5,
            "TEXCOORD_4": 6,
            "TEXCOORD_5": 7,
            "TEXCOORD_6": 8,
            "TEXCOORD_7": 9
          },
          "indices": 10,
          "material": 0,
          "mode": 4
        }
      ]
    },
    {
      "name": "OFEN_Mit_Basis_Material.007_0",
      "primitives": [
        {
          "attributes": {
            "NORMAL": 12,
            "POSITION": 11,
            "TEXCOORD_0": 13,
            "TEXCOORD_1": 14,
            "TEXCOORD_2": 15,
            "TEXCOORD_3": 16,
            "TEXCOORD_4": 17,
            "TEXCOORD_5": 18,
            "TEXCOORD_6": 19,
            "TEXCOORD_7": 20,
            "TEXCOORD_8": 21
          },
          "indices": 22,
          "material": 1,
          "mode": 4
        }
      ]
    },
    {
      "name": "OFEN_Mit_Basis_Material.002_0",
      "primitives": [
        {
          "attributes": {
            "NORMAL": 24,
            "POSITION": 23,
            "TEXCOORD_0": 25,
            "TEXCOORD_1": 26,
            "TEXCOORD_2": 27,
            "TEXCOORD_3": 28,
            "TEXCOORD_4": 29,
            "TEXCOORD_5": 30,
            "TEXCOORD_6": 31,
            "TEXCOORD_7": 32,
            "TEXCOORD_8": 33
          },
          "indices": 34,
          "material": 2,
          "mode": 4
        }
      ]
    },
    {
      "name": "OFEN_Mit_Basis_Material.001_0",
      "primitives": [
        {
          "attributes": {
            "NORMAL": 36,
            "POSITION": 35,
            "TEXCOORD_0": 37,
            "TEXCOORD_1": 38,
            "TEXCOORD_2": 39,
            "TEXCOORD_3": 40,
            "TEXCOORD_4": 41,
            "TEXCOORD_5": 42,
            "TEXCOORD_6": 43,
            "TEXCOORD_7": 44
          },
          "indices": 45,
          "material": 3,
          "mode": 4
        }
      ]
    },
    {
      "name": "OFEN_Mit_Basis_Material.003_0",
      "primitives": [
        {
          "attributes": {
            "NORMAL": 47,
            "POSITION": 46,
            "TEXCOORD_0": 48,
            "TEXCOORD_1": 49,
            "TEXCOORD_2": 50,
            "TEXCOORD_3": 51,
            "TEXCOORD_4": 52,
            "TEXCOORD_5": 53,
            "TEXCOORD_6": 54,
            "TEXCOORD_7": 55
          },
          "indices": 56,
          "material": 4,
          "mode": 4
        }
      ]
    }
  ],
  "nodes": [
    {
      "children": [
        1
      ],
      "matrix": [
        2.220446049250313e-16,
        -2.220446049250313e-16,
        1.0,
        0.0,
        1.0,
        4.930380657631324e-32,
        -2.220446049250313e-16,
        0.0,
        0.0,
        1.0,
        2.220446049250313e-16,
        0.0,
        0.0,
        0.0,
        0.0,
        1.0
      ],
      "name": "Sketchfab_model"
    },
    {
      "children": [
        2
      ],
      "matrix": [
        0.009999999776482582,
        0.0,
        0.0,
        0.0,
        0.0,
        0.0,
        0.009999999776482582,
        0.0,
        0.0,
        -0.009999999776482582,
        0.0,
        0.0,
        0.0,
        0.0,
        0.0,
        1.0
      ],
      "name": "1e3d9897435146dd80cfae64dcf9dc38.fbx"
    },
    {
      "children": [
        3
      ],
      "name": "RootNode"
    },
    {
      "children": [
        4,
        5,
        6,
        7,
        8
      ],
      "matrix": [
        100.0,
        0.0,
        0.0,
        0.0,
        0.0,
        -1.629206793918314e-05,
        -99.99999999999868,
        0.0,
        0.0,
        99.99999999999868,
        -1.629206793918314e-05,
        0.0,
        8.865120887756348,
        141.83859252929688,
        346.9397888183594,
        1.0
      ],
      "name": "OFEN_Mit_Basis"
    },
    {
      "mesh": 0,
      "name": "OFEN_Mit_Basis_Material.020_0"
    },
    {
      "mesh": 1,
      "name": "OFEN_Mit_Basis_Material.007_0"
    },
    {
      "mesh": 2,
      "name": "OFEN_Mit_Basis_Material.002_0"
    },
    {
      "mesh": 3,
      "name": "OFEN_Mit_Basis_Material.001_0"
    },
    {
      "mesh": 4,
      "name": "OFEN_Mit_Basis_Material.003_0"
    }
  ],
  "samplers": [
    {
      "magFilter": 9729,
      "minFilter": 9987,
      "wrapS": 10497,
      "wrapT": 10497
    }
  ],
  "scene": 0,
  "scenes": [
    {
      "name": "Sketchfab_Scene",
      "nodes": [
        0
      ]
    }
  ],
  "textures": [
    {
      "sampler": 0,
      "source": 0
    }
  ]
}
