{
  "accessors": [
    {
      "bufferView": 2,
      "componentType": 5126,
      "count": 801,
      "max": [
        70.07105255126953,
        96.9786148071289,
        0.2929645776748657
      ],
      "min": [
        -69.92894744873047,
        -98.0213851928711,
        -0.4570354223251343
      ],
      "type": "VEC3"
    },
    {
      "bufferView": 2,
      "byteOffset": 9612,
      "componentType": 5126,
      "count": 801,
      "max": [
        1.0,
        1.0,
        1.0
      ],
      "min": [
        -1.0,
        -1.0,
        -0.9958293437957764
      ],
      "type": "VEC3"
    },
    {
      "bufferView": 1,
      "componentType": 5126,
      "count": 801,
      "max": [
        3.9018068313598633,
        2.4303231239318848
      ],
      "min": [
        0.10685224831104279,
        -4.170862674713135
      ],
      "type": "VEC2"
    },
    {
      "bufferView": 1,
      "byteOffset": 6408,
      "componentType": 5126,
      "count": 801,
      "max": [
        0.0,
        0.0
      ],
      "min": [
        0.0,
        0.0
      ],
      "type": "VEC2"
    },
    {
      "bufferView": 1,
      "byteOffset": 12816,
      "componentType": 5126,
      "count": 801,
      "max": [
        3.9018068313598633,
        2.4303231239318848
      ],
      "min": [
        0.10685224831104279,
        -4.170862674713135
      ],
      "type": "VEC2"
    },
    {
      "bufferView": 0,
      "componentType": 5125,
      "count": 2358,
      "type": "SCALAR"
    },
    {
      "bufferView": 2,
      "byteOffset": 19224,
      "componentType": 5126,
      "count": 1603,
      "max": [
        73.07102966308594,
        99.97864532470703,
        0.5429646372795105
      ],
      "min": [
        -72.92898559570313,
        -101.0213851928711,
        -0.45703548192977905
      ],
      "type": "VEC3"
    },
    {
      "bufferView": 2,
      "byteOffset": 38460,
      "componentType": 5126,
      "count": 1603,
      "max": [
        1.0,
        1.0,
        1.0
      ],
      "min": [
        -1.0,
        -1.0,
        -1.0
      ],
      "type": "VEC3"
    },
    {
      "bufferView": 1,
      "byteOffset": 19224,
      "componentType": 5126,
      "count": 1603,
      "max": [
        3.9005072116851807,
        5.170862674713135
      ],
      "min": [
        -3.147231101989746,
        -4.170862674713135
      ],
      "type": "VEC2"
    },
    {
      "bufferView": 1,
      "byteOffset": 32048,
      "componentType": 5126,
      "count": 1603,
      "max": [
        1.0,
        0.6966419816017151
      ],
      "min": [
        0.0,
        0.0
      ],
      "type": "VEC2"
    },
    {
      "bufferView": 1,
      "byteOffset": 44872,
      "componentType": 5126,
      "count": 1603,
      "max": [
        3.9005072116851807,
        5.170862674713135
      ],
      "min": [
        -3.147231101989746,
        -4.170862674713135
      ],
      "type": "VEC2"
    },
    {
      "bufferView": 0,
      "byteOffset": 9432,
      "componentType": 5125,
      "count": 4560,
      "type": "SCALAR"
    }
  ],
  "asset": {
    "extras": {
      "author": "lutz_westerfeld (https://sketchfab.com/lutzwesterfeld)",
      "license": "CC-BY-4.0 (http://creativecommons.org/licenses/by/4.0/)",
      "source": "https://sketchfab.com/3d-models/induction-stove-no1-336d3327c28e4a1b905ea74f1e0b5a4b",
      "title": "Induction Stove No.1"
    },
    "generator": "Sketchfab-13.12.0",
    "version": "2.0"
  },
  "bufferViews": [
    {
      "buffer": 0,
      "byteLength": 27672,
      "name": "floatBufferViews",
      "target": 34963
    },
    {
      "buffer": 0,
      "byteLength": 57696,
      "byteOffset": 27672,
      "byteStride": 8,
      "name": "floatBufferViews",
      "target": 34962
    },
    {
      "buffer": 0,
      "byteLength": 57696,
      "byteOffset": 85368,
      "byteStride": 12,
      "name": "floatBufferViews",
      "target": 34962
    }
  ],
  "buffers": [
    {
      "byteLength": 143064,
      "uri": "scene.bin"
    }
  ],
  "images": [
    {
      "uri": "textures/Material.009_baseColor.jpeg"
    },
    {
      "uri": "textures/Material.002_baseColor.jpeg"
    }
  ],
  "materials": [
    {
      "doubleSided": true,
      "emissiveFactor": [
        1.0,
        1.0,
        1.0
      ],
      "emissiveTexture": {
        "index": 0
      },
      "name": "Material.009",
      "pbrMetallicRoughness": {
        "baseColorTexture": {
          "index": 0
        },
        "metallicFactor": 0.5588192699773954,
        "roughnessFactor": 0.15783574806223521
      }
    },
    {
      "doubleSided": true,
      "name": "Material.002",
      "pbrMetallicRoughness": {
        "baseColorTexture": {
          "index": 1
        },
        "metallicFactor": 0.779198700391016,
        "roughnessFactor": 0.15783574806223521
      }
    }
  ],
  "meshes": [
    {
      "name": "HERD_Elektrisch_klein_Material.009_0",
      "primitives": [
        {
          "attributes": {
            "NORMAL": 1,
            "POSITION": 0,
            "TEXCOORD_0": 2,
            "TEXCOORD_1": 3,
            "TEXCOORD_2": 4
          },
          "indices": 5,
          "material": 0,
          "mode": 4
        }
      ]
    },
    {
      "name": "HERD_Elektrisch_klein_Material.002_0",
      "primitives": [
        {
          "attributes": {
            "NORMAL": 7,
            "POSITION": 6,
            "TEXCOORD_0": 8,
            "TEXCOORD_1": 9,
            "TEXCOORD_2": 10
          },
          "indices": 11,
          "material": 1,
          "mode": 4
        }
      ]
    }
  ],
  "nodes": [
    {
      "children": [
        1
      ],
      "matrix": [
        2.220446049250313e-16,
        -3.828568672208042e-16,
        1.0,
        0.0,
        1.0,
        1.6081226229577296e-16,
        -2.2204460492503128e-16,
        0.0,
        -1.6081226229577292e-16,
        1.0,
        3.828568672208042e-16,
        0.0,
        0.0,
        0.0,
        0.0,
        1.0
      ],
      "name": "Sketchfab_model"
    },
    {
      "children": [
        2
      ],
      "matrix": [
        0.009999999776482582,
        0.0,
        0.0,
        0.0,
        0.0,
        0.0,
        0.009999999776482582,
        0.0,
        0.0,
        -0.009999999776482582,
        0.0,
        0.0,
        0.0,
        0.0,
        0.0,
        1.0
      ],
      "name": "0cb7c7dc15b846288c59ceb2e22d5e9d.fbx"
    },
    {
      "children": [
        3
      ],
      "name": "RootNode"
    },
    {
      "children": [
        4,
        5
      ],
      "matrix": [
        -0.605626404285385,
        7.41678309542651e-17,
        2.3583962937699147e-07,
        0.0,
        2.358396293769908e-07,
        4.5723521599544554e-08,
        0.6056264042853833,
        0.0,
        -1.7731228837013338e-14,
        0.6056264042854291,
        -4.5723521532306516e-08,
        0.0,
        -11.650705337524414,
        111.86067199707031,
        553.7178344726563,
        1.0
      ],
      "name": "HERD_Elektrisch_klein"
    },
    {
      "mesh": 0,
      "name": "HERD_Elektrisch_klein_Material.009_0"
    },
    {
      "mesh": 1,
      "name": "HERD_Elektrisch_klein_Material.002_0"
    }
  ],
  "samplers": [
    {
      "magFilter": 9729,
      "minFilter": 9987,
      "wrapS": 10497,
      "wrapT": 10497
    }
  ],
  "scene": 0,
  "scenes": [
    {
      "name": "Sketchfab_Scene",
      "nodes": [
        0
      ]
    }
  ],
  "textures": [
    {
      "sampler": 0,
      "source": 0
    },
    {
      "sampler": 0,
      "source": 1
    }
  ]
}
